<?xml version="1.0" encoding="UTF-8"?>
<!DOCTYPE svg PUBLIC "-//W3C//DTD SVG 1.1//EN" "http://www.w3.org/Graphics/SVG/1.1/DTD/svg11.dtd">
<!-- Creator: Eth -->
<svg xmlns="http://www.w3.org/2000/svg" xml:space="preserve" width="2.53333in" height="0.333335in" version="1.1" style="shape-rendering:geometricPrecision; text-rendering:geometricPrecision; image-rendering:optimizeQuality; fill-rule:evenodd; clip-rule:evenodd"
viewBox="0 0 164988 21709"
 xmlns:xlink="http://www.w3.org/1999/xlink">
 <defs>
  <style type="text/css">
   <![CDATA[
    .fil4 {fill:none}
    .fil3 {fill:#FEFEFE}
    .fil0 {fill:#F58634}
    .fil6 {fill:white}
    .fil5 {fill:#FEFEFE;fill-rule:nonzero}
    .fil2 {fill:#FEFEFE;fill-opacity:0.501961}
    .fil1 {fill:#FEFEFE;fill-opacity:0.749020}
   ]]>
  </style>
     <clipPath id="id0">
      <path d="M0 0l164988 0 0 21709 -164988 0 0 -21709z"/>
     </clipPath>
 </defs>
 <g id="Layer_x0020_1">
  <metadata id="CorelCorpID_0Corel-Layer"/>
  <g id="_1822323920">
   <g>
    <polygon class="fil0" points="0,0 164988,0 164988,21709 0,21709 "/>
    <g style="clip-path:url(#id0)">
     <g>
      <g>
       <polygon id="1" class="fil1" points="147607,-19165 152197,-19165 136598,34768 132008,34768 "/>
       <polygon class="fil2" points="144396,-19165 145795,-19165 130195,34768 128796,34768 "/>
       <path class="fil3" d="M148082 5613l13767 0 -6884 5360 -6883 -5360zm14335 359l0 11454 -14904 0 0 -11454 7257 5651 195 152 195 -152 7257 -5651 0 0z"/>
      </g>
     </g>
    </g>
    <polygon class="fil4" points="0,0 164988,0 164988,21709 0,21709 "/>
    <path class="fil5" d="M45987 14088c-299,0 -560,-79 -786,-234 -225,-158 -395,-372 -510,-642l-46 0 -322 782 -576 0 1522 -7173 773 0c-157,744 -277,1313 -361,1708 -85,395 -202,857 -348,1386l41 0c286,-362 568,-629 846,-799 277,-172 565,-257 859,-257 433,0 771,153 1014,457 243,305 364,721 364,1253 0,644 -106,1237 -317,1782 -208,546 -503,973 -879,1278 -376,306 -802,459 -1274,459zm857 -4587c-295,0 -596,146 -901,438 -305,292 -549,658 -728,1102 -179,442 -269,895 -269,1359 0,338 85,596 255,777 171,179 416,269 739,269 305,0 588,-124 851,-373 263,-250 473,-604 634,-1063 159,-459 239,-947 239,-1463 0,-697 -274,-1046 -820,-1046zm2341 -557l774 0 341 2511c32,212 61,523 90,937 30,412 44,746 44,997l28 0c107,-267 241,-574 401,-921 159,-346 277,-587 354,-719l1498 -2805 821 0 -3207 5905c-287,529 -570,895 -848,1101 -280,206 -617,309 -1010,309 -222,0 -436,-32 -645,-96l0 -620c193,55 395,83 604,83 252,0 467,-77 646,-232 181,-156 354,-386 524,-689l349 -627 -764 -5134zm7608 5050l-1623 -5287 -41 0c58,1076 88,1793 88,2152l0 3135 -1277 0 0 -6739 1946 0 1593 5153 28 0 1693 -5153 1944 0 0 6739 -1332 0 0 -3190c0,-150 3,-324 8,-521 4,-197 25,-719 61,-1567l-41 0 -1738 5278 -1309 0zm10171 0l-489 -1605 -2457 0 -488 1605 -1540 0 2379 -6767 1746 0 2388 6767 -1539 0zm-830 -2803c-452,-1454 -707,-2277 -763,-2467 -57,-190 -98,-341 -121,-451 -103,393 -394,1365 -872,2918l1756 0zm3217 2803l0 -6739 1428 0 0 6739 -1428 0zm3123 0l0 -6739 1428 0 0 5559 2734 0 0 1180 -4162 0zm10383 0l-1428 0 0 -5550 -1829 0 0 -1189 5087 0 0 1189 -1830 0 0 5550zm4296 -3747l461 0c452,0 785,-76 999,-227 215,-149 322,-387 322,-709 0,-319 -110,-548 -328,-683 -221,-135 -560,-203 -1021,-203l-433 0 0 1822zm0 1161l0 2586 -1428 0 0 -6739 1963 0c915,0 1592,167 2031,500 440,334 659,840 659,1518 0,397 -109,749 -327,1059 -218,308 -526,550 -925,725 1013,1515 1673,2495 1980,2937l-1585 0 -1608 -2586 -760 0zm8928 2586l-489 -1605 -2457 0 -488 1605 -1539 0 2378 -6767 1746 0 2388 6767 -1539 0zm-830 -2803c-452,-1454 -707,-2277 -763,-2467 -57,-190 -98,-341 -121,-451 -103,393 -394,1365 -872,2918l1756 0zm9194 2803l-1815 0 -2932 -5098 -41 0c58,901 88,1543 88,1927l0 3171 -1277 0 0 -6739 1802 0 2926 5048 33 0c-47,-877 -69,-1496 -69,-1858l0 -3190 1285 0 0 6739zm5675 -1869c0,609 -220,1087 -658,1438 -437,350 -1047,525 -1827,525 -719,0 -1356,-135 -1908,-406l0 -1327c454,202 840,345 1154,429 315,83 603,124 864,124 314,0 555,-60 722,-179 168,-120 251,-299 251,-535 0,-132 -36,-250 -110,-352 -73,-104 -182,-203 -325,-298 -143,-96 -434,-248 -873,-456 -412,-195 -722,-380 -928,-558 -206,-178 -370,-386 -493,-623 -124,-236 -185,-513 -185,-829 0,-596 203,-1065 607,-1406 404,-341 963,-511 1675,-511 351,0 684,41 1004,124 317,83 649,200 997,351l-461 1110c-360,-148 -657,-250 -892,-308 -236,-58 -467,-88 -694,-88 -270,0 -478,63 -622,189 -145,125 -218,291 -218,493 0,126 30,236 89,329 58,94 151,184 278,272 128,88 429,246 906,472 631,302 1062,604 1296,906 233,304 351,673 351,1114zm2625 1869l-1406 0 0 -6739 3863 0 0 1170 -2457 0 0 1737 2287 0 0 1170 -2287 0 0 2662zm7654 0l-3880 0 0 -6739 3880 0 0 1170 -2452 0 0 1482 2281 0 0 1170 -2281 0 0 1737 2452 0 0 1180zm2833 -3747l461 0c451,0 785,-76 999,-227 215,-149 322,-387 322,-709 0,-319 -110,-548 -329,-683 -220,-135 -560,-203 -1021,-203l-432 0 0 1822zm0 1161l0 2586 -1428 0 0 -6739 1963 0c915,0 1592,167 2031,500 440,334 658,840 658,1518 0,397 -108,749 -327,1059 -217,308 -525,550 -925,725 1013,1515 1674,2495 1981,2937l-1586 0 -1607 -2586 -760 0z"/>
   </g>
   <polygon class="fil6" points="0,13976 0,7678 9102,7678 7165,13976 "/>
   <path class="fil6" d="M0 0l35935 0c681,1536 415,2493 -198,4708 -665,2406 -2832,9627 -3720,12187 -659,1900 -1731,3574 -3099,4814l-28918 0 0 -3990 21898 0 4223 -13728 -26121 0 0 -3991z"/>
  </g>
 </g>
</svg>
