<?xml version="1.0" encoding="UTF-8"?>
<!DOCTYPE svg PUBLIC "-//W3C//DTD SVG 1.1//EN" "http://www.w3.org/Graphics/SVG/1.1/DTD/svg11.dtd">
<!-- Creator: Eth -->
<svg xmlns="http://www.w3.org/2000/svg" xml:space="preserve" width="2.53333in" height="0.333335in" version="1.1" style="shape-rendering:geometricPrecision; text-rendering:geometricPrecision; image-rendering:optimizeQuality; fill-rule:evenodd; clip-rule:evenodd"
viewBox="0 0 129109 16988"
 xmlns:xlink="http://www.w3.org/1999/xlink">
 <defs>
  <style type="text/css">
   <![CDATA[
    .fil4 {fill:none}
    .fil0 {fill:#F58634}
    .fil6 {fill:white}
    .fil1 {fill:#FEFEFE;fill-rule:nonzero}
    .fil5 {fill:#FEFEFE;fill-rule:nonzero}
    .fil3 {fill:#FEFEFE;fill-opacity:0.501961}
    .fil2 {fill:#FEFEFE;fill-opacity:0.749020}
   ]]>
  </style>
    <clipPath id="id0">
     <path d="M0 0l129109 0 0 16988 -129109 0 0 -16988z"/>
    </clipPath>
 </defs>
 <g id="Layer_x0020_1">
  <metadata id="CorelCorpID_0Corel-Layer"/>
  <g id="_1572101552">
   <polygon class="fil0" points="0,0 129109,0 129109,16988 0,16988 "/>
   <g style="clip-path:url(#id0)">
    <g>
     <g>
      <g>
       <polygon id="1" class="fil1" points="119690,1459 127186,1488 127242,1515 127242,9012 127158,9068 125502,7383 120897,11988 116714,7804 121318,3200 119662,1544 "/>
       <polygon class="fil1" points="125558,9573 121318,13813 122610,15104 122722,15216 122862,15357 122778,15525 122722,15665 122694,15750 122694,15750 122638,15890 122554,16087 122357,16087 122217,16087 114693,16058 114693,16058 114609,16058 114496,16058 114384,15974 114328,15918 114328,15890 114271,15862 114215,15778 114159,15609 114131,15497 114131,8001 114131,8001 114131,7832 114131,7636 114300,7552 114440,7496 114440,7496 114524,7468 114665,7411 114833,7327 115002,7496 115086,7580 115086,7580 116742,9236 116967,9461 116742,9686 116433,9994 116237,10191 116012,9994 115170,9152 115170,15020 121038,15020 120196,14177 120196,14177 120055,14037 119830,13813 120055,13588 120196,13447 120196,13447 124800,8843 125024,8619 125249,8843 125558,9152 125754,9377 "/>
      </g>
      <polygon class="fil2" points="115508,-15264 119099,-15264 106892,26941 103301,26941 "/>
      <polygon class="fil3" points="112994,-15264 114089,-15264 101882,26941 100788,26941 "/>
     </g>
    </g>
   </g>
   <polygon class="fil4" points="0,0 129109,0 129109,16988 0,16988 "/>
   <path class="fil5" d="M36240 6718c-421,0 -746,157 -977,474 -230,316 -346,757 -346,1322 0,1175 441,1763 1323,1763 370,0 819,-92 1344,-278l0 938c-432,181 -915,271 -1448,271 -767,0 -1353,-233 -1759,-698 -407,-465 -610,-1133 -610,-2004 0,-547 100,-1028 300,-1440 199,-412 486,-729 859,-949 374,-220 812,-330 1314,-330 512,0 1026,125 1543,372l-361 908c-197,-93 -395,-174 -595,-245 -199,-70 -395,-104 -587,-104zm7105 1774c0,873 -215,1544 -649,2013 -433,469 -1053,703 -1861,703 -807,0 -1428,-234 -1861,-703 -433,-469 -649,-1142 -649,-2020 0,-877 217,-1548 652,-2011 433,-463 1056,-694 1866,-694 810,0 1430,233 1858,699 430,467 644,1137 644,2013zm-3848 0c0,589 112,1032 335,1331 224,298 559,447 1003,447 893,0 1338,-593 1338,-1778 0,-1188 -443,-1782 -1330,-1782 -446,0 -781,150 -1007,450 -225,299 -339,743 -339,1332zm4940 2642l0 -5273 1117 0 0 5273 -1117 0zm7122 0l-1421 0 -2294 -3989 -32 0c45,705 69,1207 69,1508l0 2481 -1000 0 0 -5273 1411 0 2289 3950 26 0c-37,-686 -54,-1171 -54,-1454l0 -2496 1006 0 0 5273zm8031 -2642c0,873 -215,1544 -648,2013 -434,469 -1054,703 -1861,703 -808,0 -1428,-234 -1862,-703 -433,-469 -648,-1142 -648,-2020 0,-877 216,-1548 651,-2011 433,-463 1056,-694 1866,-694 810,0 1430,233 1859,699 429,467 643,1137 643,2013zm-3848 0c0,589 112,1032 335,1331 224,298 559,447 1004,447 892,0 1337,-593 1337,-1778 0,-1188 -443,-1782 -1330,-1782 -446,0 -781,150 -1007,450 -225,299 -339,743 -339,1332zm6058 -149l368 0c344,0 602,-68 772,-205 171,-135 256,-333 256,-593 0,-262 -72,-456 -215,-581 -142,-124 -366,-187 -673,-187l-508 0 0 1566zm2524 -837c0,567 -177,1002 -531,1302 -355,300 -860,450 -1513,450l-480 0 0 1876 -1118 0 0 -5273 1684 0c640,0 1126,138 1460,412 332,276 498,687 498,1233zm4033 3628l-3037 0 0 -5273 3037 0 0 916 -1919 0 0 1159 1784 0 0 916 -1784 0 0 1359 1919 0 0 923zm2216 -2932l361 0c353,0 614,-59 782,-177 168,-117 252,-303 252,-555 0,-250 -86,-429 -257,-534 -173,-106 -439,-159 -799,-159l-339 0 0 1425zm0 909l0 2023 -1117 0 0 -5273 1536 0c716,0 1245,130 1589,392 345,260 516,657 516,1187 0,311 -85,586 -256,829 -170,241 -411,431 -724,567 792,1185 1310,1952 1549,2298l-1240 0 -1258 -2023 -595 0zm6987 2023l-383 -1255 -1923 0 -381 1255 -1205 0 1861 -5295 1366 0 1869 5295 -1204 0zm-650 -2193c-353,-1138 -553,-1781 -597,-1930 -44,-149 -76,-267 -95,-354 -80,308 -308,1069 -682,2284l1374 0zm4035 2193l-1118 0 0 -4342 -1431 0 0 -931 3981 0 0 931 -1432 0 0 4342zm2244 0l0 -5273 1118 0 0 5273 -1118 0zm7230 -2642c0,873 -215,1544 -649,2013 -433,469 -1053,703 -1861,703 -807,0 -1428,-234 -1861,-703 -433,-469 -649,-1142 -649,-2020 0,-877 217,-1548 652,-2011 433,-463 1056,-694 1866,-694 810,0 1430,233 1858,699 430,467 644,1137 644,2013zm-3848 0c0,589 112,1032 335,1331 224,298 559,447 1003,447 893,0 1338,-593 1338,-1778 0,-1188 -443,-1782 -1330,-1782 -446,0 -781,150 -1007,450 -225,299 -339,743 -339,1332zm9617 2642l-1420 0 -2295 -3989 -32 0c46,705 69,1207 69,1508l0 2481 -999 0 0 -5273 1410 0 2290 3950 26 0c-37,-686 -55,-1171 -55,-1454l0 -2496 1006 0 0 5273zm4441 -1462c0,476 -172,850 -514,1125 -342,274 -820,411 -1430,411 -563,0 -1062,-106 -1494,-318l0 -1038c356,158 658,270 904,336 246,65 471,97 676,97 246,0 434,-47 565,-140 131,-94 196,-234 196,-419 0,-103 -28,-196 -86,-276 -57,-81 -142,-159 -254,-232 -112,-75 -340,-195 -684,-357 -322,-153 -565,-298 -726,-437 -161,-139 -289,-302 -385,-488 -97,-184 -145,-401 -145,-648 0,-467 158,-834 475,-1101 316,-267 753,-400 1311,-400 274,0 535,32 785,98 249,65 508,156 780,274l-360 869c-282,-116 -515,-196 -698,-241 -185,-46 -366,-69 -543,-69 -212,0 -374,49 -487,147 -114,99 -170,228 -170,387 0,98 23,185 69,257 45,74 118,144 218,213 99,69 335,192 708,369 494,237 831,473 1015,710 182,237 274,526 274,871z"/>
   <polygon class="fil6" points="0,10937 0,6008 7123,6008 5607,10937 "/>
   <path class="fil6" d="M0 0l28121 0c533,1202 324,1951 -155,3684 -521,1883 -2216,7533 -2912,9537 -515,1487 -1354,2797 -2425,3767l-22629 0 0 -3123 17136 0 3305 -10742 -20441 0 0 -3123z"/>
  </g>
 </g>
</svg>
