<?xml version="1.0" encoding="UTF-8"?>
<!DOCTYPE svg PUBLIC "-//W3C//DTD SVG 1.1//EN" "http://www.w3.org/Graphics/SVG/1.1/DTD/svg11.dtd">
<!-- Creator: Eth -->
<svg xmlns="http://www.w3.org/2000/svg" xml:space="preserve" width="2.53333in" height="0.333335in" version="1.1" style="shape-rendering:geometricPrecision; text-rendering:geometricPrecision; image-rendering:optimizeQuality; fill-rule:evenodd; clip-rule:evenodd"
viewBox="0 0 488679 64300"
 xmlns:xlink="http://www.w3.org/1999/xlink">
 <defs>
  <style type="text/css">
   <![CDATA[
    .fil4 {fill:none}
    .fil1 {fill:#FEFEFE}
    .fil0 {fill:#F58634}
    .fil6 {fill:white}
    .fil5 {fill:#FEFEFE;fill-rule:nonzero}
    .fil3 {fill:#FEFEFE;fill-opacity:0.501961}
    .fil2 {fill:#FEFEFE;fill-opacity:0.749020}
   ]]>
  </style>
    <clipPath id="id0">
     <path d="M0 0l488679 0 0 64300 -488679 0 0 -64300z"/>
    </clipPath>
 </defs>
 <g id="Layer_x0020_1">
  <metadata id="CorelCorpID_0Corel-Layer"/>
  <g id="_1490466192">
   <polygon class="fil0" points="0,0 488679,0 488679,64300 0,64300 "/>
   <g style="clip-path:url(#id0)">
    <g>
     <g>
      <path id="1" class="fil1" d="M445589 44653c1425,0 2853,-284 4279,-284 571,1426 1141,2854 1996,3996 854,854 1996,1711 3424,2283l-570 -11983c-1426,-571 -2567,-854 -3425,-1425 -1996,-855 -3424,-2283 -4565,-3709 -1142,-1712 -1997,-3424 -2283,-5707 -284,-2283 0,-4849 854,-7133 1141,-2283 2853,-4279 5136,-5707 1142,-570 2283,-854 3425,-1425l-571 -7133 3425 -284 284 6849c854,0 1424,0 1995,0 1142,0 1996,0 2854,284l284 -7133 3424 0 -283 7703c854,285 1996,856 2853,1426 2567,1425 4566,3424 5421,5991 1141,2283 1425,4850 1141,7703 -1712,284 -3425,284 -5137,571 0,-3137 -854,-5420 -2566,-7132 -571,-571 -1142,-1142 -1996,-1426l-571 14837 571 283c1425,284 2567,854 3137,1142 2283,854 3708,2282 4566,3708 571,1425 855,3137 571,4850 -284,1712 -855,3424 -1996,4850 -1425,1141 -2854,2282 -4567,3137 -854,284 -1711,570 -2853,570l0 4567 -3424 0 283 -4280 -283 0c-571,0 -1142,0 -1713,0l0 4280 -3137 0 -284 -4567c-570,-283 -1425,-570 -1996,-570 -1996,-855 -3708,-1996 -4850,-3425 -1424,-1712 -2283,-3424 -2853,-5707zm12837 6846c570,0 1425,0 1996,0l283 0 284 -11128 -2283 -571 -570 -284 283 11983 7 0zm-1141 -31668l570 14265 1996 571 1425 284 284 -15123c-571,0 -1425,0 -2283,0 -571,0 -1425,0 -1996,0l4 3zm-2851 13124l-284 -12270c-1142,284 -1712,854 -2567,1426 -1425,1425 -1996,3424 -1712,5420 0,1712 854,2854 1996,3995 571,571 1425,1142 2567,1425l0 4zm9699 17973l571 0c1425,-571 2283,-1142 2854,-1996 854,-854 1141,-1713 1425,-2567 0,-1141 -284,-1996 -855,-2853 -570,-855 -1425,-1426 -2853,-1997l-855 -283 -284 9699 -3 -3z"/>
      <polygon class="fil2" points="445917,-65091 459511,-65091 413308,94654 399714,94654 "/>
      <polygon class="fil3" points="436404,-65091 440548,-65091 394345,94654 390201,94654 "/>
     </g>
    </g>
   </g>
   <polygon class="fil4" points="0,0 488679,0 488679,64300 0,64300 "/>
   <path class="fil5" d="M134408 25427c-1594,0 -2824,596 -3699,1794 -872,1197 -1310,2865 -1310,5003 0,4450 1668,6676 5009,6676 1397,0 3098,-349 5087,-1052l0 3549c-1636,686 -3467,1026 -5484,1026 -2902,0 -5120,-880 -6657,-2642 -1538,-1761 -2306,-4290 -2306,-7585 0,-2073 377,-3890 1132,-5451 755,-1560 1840,-2758 3252,-3592 1416,-834 3075,-1248 4976,-1248 1938,0 3881,471 5837,1407l-1365 3438c-746,-354 -1495,-661 -2250,-927 -755,-265 -1495,-396 -2222,-396zm21557 16716l-1449 -4752 -7277 0 -1445 4752 -4561 0 7045 -20042 5171 0 7072 20042 -4556 0zm-2460 -8302c-1338,-4305 -2092,-6742 -2260,-7305 -167,-564 -289,-1011 -359,-1338 -303,1165 -1165,4045 -2581,8643l5200 0zm21315 2767c0,1803 -653,3220 -1948,4259 -1295,1039 -3103,1556 -5413,1556 -2130,0 -4017,-401 -5652,-1202l0 -3932c1347,601 2488,1024 3420,1271 932,248 1785,369 2558,369 932,0 1644,-177 2138,-531 499,-355 745,-886 745,-1585 0,-391 -107,-740 -325,-1043 -219,-308 -541,-602 -965,-881 -424,-284 -1286,-736 -2586,-1351 -1220,-577 -2138,-1127 -2748,-1654 -611,-526 -1095,-1142 -1458,-1845 -369,-699 -550,-1519 -550,-2455 0,-1766 600,-3154 1798,-4165 1197,-1011 2851,-1514 4962,-1514 1038,0 2027,121 2972,368 941,247 1924,592 2954,1039l-1365 3289c-1067,-438 -1947,-741 -2642,-913 -699,-173 -1383,-261 -2055,-261 -801,0 -1416,186 -1844,559 -429,373 -644,862 -644,1463 0,373 89,698 262,973 172,280 447,546 824,807 378,260 1272,727 2684,1397 1868,895 3144,1789 3839,2684 689,899 1039,1994 1039,3298zm19959 5535l-4217 0 0 -8610 -7901 0 0 8610 -4230 0 0 -19959 4230 0 0 7827 7901 0 0 -7827 4217 0 0 19959zm30418 -10002c0,3307 -815,5847 -2456,7621 -1639,1775 -3987,2661 -7043,2661 -3057,0 -5405,-886 -7045,-2661 -1640,-1774 -2455,-4323 -2455,-7645 0,-3322 820,-5861 2464,-7613 1640,-1751 3998,-2627 7063,-2627 3066,0 5414,881 7035,2646 1626,1766 2437,4305 2437,7618zm-14564 0c0,2231 424,3908 1267,5041 848,1127 2115,1690 3798,1690 3377,0 5064,-2245 5064,-6731 0,-4496 -1678,-6742 -5037,-6742 -1686,0 -2954,568 -3811,1700 -852,1133 -1281,2815 -1281,5042zm22927 -564l1393 0c1304,0 2278,-257 2921,-774 647,-512 969,-1262 969,-2245 0,-992 -270,-1724 -811,-2199 -540,-471 -1388,-709 -2549,-709l-1923 0 0 5927zm9555 -3168c0,2147 -670,3792 -2012,4928 -1342,1137 -3252,1706 -5727,1706l-1816 0 0 7100 -4230 0 0 -19959 6373 0c2423,0 4263,522 5526,1561 1257,1043 1886,2599 1886,4664zm15263 13734l-11494 0 0 -19959 11494 0 0 3466 -7264 0 0 4389 6756 0 0 3466 -6756 0 0 5144 7264 0 0 3494zm8390 -11098l1365 0c1337,0 2325,-223 2959,-670 638,-443 954,-1146 954,-2102 0,-945 -326,-1621 -973,-2021 -653,-401 -1659,-602 -3024,-602l-1281 0 0 5395zm0 3439l0 7659 -4230 0 0 -19959 5814 0c2712,0 4715,494 6015,1482 1304,987 1952,2488 1952,4496 0,1174 -321,2217 -969,3135 -643,913 -1556,1631 -2739,2148 2999,4486 4956,7389 5865,8698l-4696 0 -4762 -7659 -2250 0zm26444 7659l-1449 -4752 -7277 0 -1444 4752 -4562 0 7045 -20042 5171 0 7073 20042 -4557 0zm-2460 -8302c-1337,-4305 -2092,-6742 -2260,-7305 -167,-564 -289,-1011 -358,-1338 -303,1165 -1165,4045 -2582,8643l5200 0zm15273 8302l-4230 0 0 -16436 -5419 0 0 -3523 15067 0 0 3523 -5418 0 0 16436zm8493 0l0 -19959 4230 0 0 19959 -4230 0zm27366 -10002c0,3307 -815,5847 -2455,7621 -1640,1775 -3988,2661 -7044,2661 -3057,0 -5405,-886 -7045,-2661 -1639,-1774 -2455,-4323 -2455,-7645 0,-3322 820,-5861 2465,-7613 1640,-1751 3997,-2627 7062,-2627 3066,0 5415,881 7036,2646 1626,1766 2436,4305 2436,7618zm-14564 0c0,2231 424,3908 1268,5041 847,1127 2115,1690 3797,1690 3377,0 5064,-2245 5064,-6731 0,-4496 -1678,-6742 -5037,-6742 -1686,0 -2953,568 -3810,1700 -853,1133 -1282,2815 -1282,5042zm36401 10002l-5376 0 -8685 -15099 -121 0c172,2669 261,4570 261,5707l0 9392 -3783 0 0 -19959 5339 0 8665 14951 98 0c-139,-2595 -205,-4431 -205,-5502l0 -9449 3807 0 0 19959zm16809 -5535c0,1803 -652,3220 -1947,4259 -1295,1039 -3103,1556 -5413,1556 -2130,0 -4017,-401 -5652,-1202l0 -3932c1346,601 2488,1024 3420,1271 932,248 1784,369 2558,369 931,0 1644,-177 2138,-531 498,-355 745,-886 745,-1585 0,-391 -107,-740 -326,-1043 -218,-308 -540,-602 -964,-881 -424,-284 -1286,-736 -2586,-1351 -1221,-577 -2139,-1127 -2749,-1654 -610,-526 -1095,-1142 -1458,-1845 -368,-699 -549,-1519 -549,-2455 0,-1766 600,-3154 1798,-4165 1197,-1011 2851,-1514 4961,-1514 1039,0 2027,121 2973,368 941,247 1924,592 2953,1039l-1364 3289c-1067,-438 -1948,-741 -2642,-913 -699,-173 -1383,-261 -2055,-261 -801,0 -1416,186 -1845,559 -428,373 -643,862 -643,1463 0,373 89,698 261,973 173,280 448,546 825,807 378,260 1272,727 2683,1397 1869,895 3145,1789 3839,2684 690,899 1039,1994 1039,3298z"/>
   <polygon class="fil6" points="0,41395 0,22742 26960,22742 21222,41395 "/>
   <path class="fil6" d="M0 0l106437 0c2017,4548 1230,7383 -586,13945 -1970,7127 -8388,28513 -11020,36097 -1952,5627 -5127,10586 -9178,14258l-85653 0 0 -11819 64861 0 12508 -40660 -77369 0 0 -11821z"/>
  </g>
 </g>
</svg>
